<?xml version="1.0" encoding="utf-8"?>
<!-- Generator: Adobe Illustrator 16.0.3, SVG Export Plug-In . SVG Version: 6.00 Build 0)  -->
<!DOCTYPE svg PUBLIC "-//W3C//DTD SVG 1.1//EN" "http://www.w3.org/Graphics/SVG/1.1/DTD/svg11.dtd">
<svg version="1.1" id="Calque_1" xmlns="http://www.w3.org/2000/svg" xmlns:xlink="http://www.w3.org/1999/xlink" x="0px" y="0px"
	 width="141.732px" height="141.732px" viewBox="0 0 141.732 141.732" enable-background="new 0 0 141.732 141.732"
	 xml:space="preserve">
<g>
	<g>
		<g>
			<g>
				<g>
					<g>
						<path fill="#020203" d="M70.404,15.44C54.701,15.739,44.83,27.134,44.687,42.51c-0.063,6.769,2.105,12.892,6.007,18.334
							c4.835,6.746,8.005,15.968,7.847,24.356c-0.016,0.818,0.694,1.5,1.5,1.5c6.965,0,13.93,0,20.896,0
							c0.812,0,1.508-0.682,1.5-1.5c-0.083-8.137,2.536-16.468,6.902-23.263c3.922-6.104,6.731-10.777,7.077-18.309
							C97.137,27.878,86.148,15.744,70.404,15.44c-1.936-0.038-1.932,2.963,0,3c16.48,0.318,25.436,14.689,22.427,30.173
							c-1.413,7.268-7.133,12.096-9.793,18.844c-2.195,5.568-3.663,11.713-3.601,17.742c0.5-0.5,1-1,1.5-1.5
							c-6.965,0-13.93,0-20.896,0c0.5,0.5,1,1,1.5,1.5c0.107-5.693-1.421-11.504-3.438-16.767c-2.73-7.121-8.194-12.429-9.83-19.995
							c-3.33-15.392,5.932-29.69,22.131-29.999C72.336,18.404,72.34,15.404,70.404,15.44z"/>
					</g>
				</g>
				<g>
					<g>
						<path fill="#020203" d="M52.591,123.346c-7.576-14.182-15.151-28.363-22.726-42.545c-0.912-1.707-3.502-0.192-2.591,1.514
							C34.85,96.496,42.425,110.678,50,124.859C50.913,126.566,53.502,125.051,52.591,123.346L52.591,123.346z"/>
					</g>
				</g>
				<g>
					<g>
						<path fill="#020203" d="M111.867,80.77c-7.575,14.422-15.149,28.844-22.725,43.266c-0.898,1.711,1.691,3.228,2.591,1.514
							c7.575-14.422,15.149-28.844,22.724-43.266C115.355,80.573,112.767,79.056,111.867,80.77L111.867,80.77z"/>
					</g>
				</g>
				<g>
					<g>
						<path fill="#F2C807" d="M70.93,82.255c0-6.833,0-13.665,0-20.497c-0.5,0.5-1,1-1.5,1.5c4.183-0.077,9.683-3.044,6.967-7.937
							c-2.182-3.929-12.124-4.391-14.553-0.54c-1.757,2.786,0.394,7.495,3.943,7.263c6.186-0.404,5.809-12.794,5.854-16.55
							c0.023-1.936-2.977-1.933-3,0c-0.044,3.757-0.198,7.511-1.352,11.115c-0.452,1.41-1.63,3.477-2.795,1.539
							c-2.024-3.369,5.6-2.794,6.956-2.497c2.396,0.526,3.072,3.293,0.468,4.217c-0.785,0.279-1.657,0.375-2.487,0.39
							c-0.817,0.015-1.5,0.671-1.5,1.5c0,6.833,0,13.665,0,20.497C67.93,84.189,70.93,84.189,70.93,82.255L70.93,82.255z"/>
					</g>
				</g>
				<g>
					<g>
						<path fill="#F2C807" d="M62.803,96.274c2.7,0,5.4,0,8.101,0c1.935,0,1.935-3,0-3c-2.7,0-5.4,0-8.101,0
							C60.868,93.274,60.868,96.274,62.803,96.274L62.803,96.274z"/>
					</g>
				</g>
				<g>
					<g>
						<path fill="#F2C807" d="M74.952,97.692c-1.473,0-2.945,0-4.418,0c-1.935,0-1.935,3,0,3c1.473,0,2.945,0,4.418,0
							C76.887,100.692,76.887,97.692,74.952,97.692L74.952,97.692z"/>
					</g>
				</g>
				<g>
					<g>
						<path fill="#020203" d="M91.498,123.731c-10.123-11.049-20.291-22.042-30.553-32.963c-0.354,0.854-0.707,1.707-1.061,2.561
							c7.321,0,14.642,0,21.963,0c-0.354-0.854-0.707-1.707-1.061-2.561c-10.191,10.845-20.374,21.698-30.552,32.557
							c-1.321,1.409,0.796,3.535,2.121,2.121c10.178-10.858,20.36-21.711,30.552-32.557c0.885-0.941,0.278-2.561-1.061-2.561
							c-7.321,0-14.642,0-21.963,0c-1.339,0-1.945,1.619-1.061,2.561c10.262,10.92,20.429,21.914,30.553,32.963
							C90.687,127.282,92.802,125.154,91.498,123.731L91.498,123.731z"/>
					</g>
				</g>
			</g>
			<g>
				<g>
					<path fill="#020203" d="M23.738,82.858c3.559,0,7.118,0,10.677,0c1.935,0,1.935-3,0-3c-3.559,0-7.118,0-10.677,0
						C21.804,79.858,21.804,82.858,23.738,82.858L23.738,82.858z"/>
				</g>
			</g>
			<g>
				<g>
					<path fill="#020203" d="M107.316,82.858c3.559,0,7.118,0,10.678,0c1.935,0,1.935-3,0-3c-3.56,0-7.119,0-10.678,0
						C105.382,79.858,105.382,82.858,107.316,82.858L107.316,82.858z"/>
				</g>
			</g>
		</g>
	</g>
	<g>
		<g>
			<path fill="#020203" d="M81.918,28.775c3.005,3.783,5.334,8.542,5.49,13.435c0.062,1.93,3.062,1.936,3,0
				c-0.183-5.74-2.85-11.126-6.369-15.556C82.836,25.14,80.728,27.278,81.918,28.775L81.918,28.775z"/>
		</g>
	</g>
</g>
</svg>
